<svg width="30" height="30" viewBox="0 0 30 30" fill="none" xmlns="http://www.w3.org/2000/svg">
<path d="M21.9685 9.45887C21.5854 9.07562 21.1306 8.7716 20.63 8.56418C20.1294 8.35676 19.5928 8.25 19.051 8.25C18.5091 8.25 17.9725 8.35676 17.472 8.56418C16.9714 8.7716 16.5165 9.07562 16.1335 9.45887L15.3385 10.2539L14.5435 9.45887C13.7697 8.6851 12.7202 8.2504 11.626 8.2504C10.5317 8.2504 9.48224 8.6851 8.70847 9.45887C7.9347 10.2326 7.5 11.2821 7.5 12.3764C7.5 13.4706 7.9347 14.5201 8.70847 15.2939L9.50347 16.0889L15.3385 21.9239L21.1735 16.0889L21.9685 15.2939C22.3517 14.9108 22.6557 14.456 22.8632 13.9554C23.0706 13.4548 23.1773 12.9182 23.1773 12.3764C23.1773 11.8345 23.0706 11.2979 22.8632 10.7974C22.6557 10.2968 22.3517 9.84194 21.9685 9.45887V9.45887Z" fill="black" stroke="black" stroke-width="2" stroke-linecap="round" stroke-linejoin="round"/>
</svg>
