<svg width="28" height="28" viewBox="0 0 28 28" fill="none" xmlns="http://www.w3.org/2000/svg">
<path d="M18.2 11.2C19.3598 11.2 20.3 10.2598 20.3 9.1C20.3 7.9402 19.3598 7 18.2 7C17.0402 7 16.1 7.9402 16.1 9.1C16.1 10.2598 17.0402 11.2 18.2 11.2Z" stroke="white" stroke-width="2" stroke-linecap="round" stroke-linejoin="round"/>
<path d="M9.79995 16.1C10.9597 16.1 11.9 15.1598 11.9 14C11.9 12.8402 10.9597 11.9 9.79995 11.9C8.64015 11.9 7.69995 12.8402 7.69995 14C7.69995 15.1598 8.64015 16.1 9.79995 16.1Z" stroke="white" stroke-width="2" stroke-linecap="round" stroke-linejoin="round"/>
<path d="M18.2 21C19.3598 21 20.3 20.0598 20.3 18.9C20.3 17.7403 19.3598 16.8 18.2 16.8C17.0402 16.8 16.1 17.7403 16.1 18.9C16.1 20.0598 17.0402 21 18.2 21Z" stroke="white" stroke-width="2" stroke-linecap="round" stroke-linejoin="round"/>
<path d="M11.613 15.057L16.394 17.843" stroke="white" stroke-width="2" stroke-linecap="round" stroke-linejoin="round"/>
<path d="M16.387 10.157L11.613 12.943" stroke="white" stroke-width="2" stroke-linecap="round" stroke-linejoin="round"/>
</svg>
